<svg width="11" height="12" viewBox="0 0 11 12" fill="none" xmlns="http://www.w3.org/2000/svg">
<path d="M2.40039 5.3999H3.60039V6.5999H2.40039V5.3999ZM2.40039 7.7999H3.60039V8.9999H2.40039V7.7999ZM4.80039 5.3999H6.00039V6.5999H4.80039V5.3999ZM4.80039 7.7999H6.00039V8.9999H4.80039V7.7999ZM7.20039 5.3999H8.40039V6.5999H7.20039V5.3999ZM7.20039 7.7999H8.40039V8.9999H7.20039V7.7999Z" fill="#727272"/>
<path d="M1.2 12H9.6C10.2618 12 10.8 11.4618 10.8 10.8V2.4C10.8 1.7382 10.2618 1.2 9.6 1.2H8.4V0H7.2V1.2H3.6V0H2.4V1.2H1.2C0.5382 1.2 0 1.7382 0 2.4V10.8C0 11.4618 0.5382 12 1.2 12ZM9.6 3.6L9.6006 10.8H1.2V3.6H9.6Z" fill="#727272"/>
</svg>
