<svg width="29" height="28" viewBox="0 0 29 28" fill="none" xmlns="http://www.w3.org/2000/svg">
<path d="M11.8004 5.04086C12.0631 5.04086 12.2793 4.8247 12.2793 4.56192V1.42132C12.2793 1.15854 12.0631 0.942383 11.8004 0.942383C11.5376 0.942383 11.3214 1.15854 11.3214 1.42132V4.56192C11.3214 4.82894 11.5334 5.04086 11.8004 5.04086Z" fill="white"/>
<path d="M17.2045 5.04086C17.4673 5.04086 17.6834 4.8247 17.6834 4.56192V1.42132C17.6834 1.15854 17.4673 0.942383 17.2045 0.942383C16.9417 0.942383 16.7256 1.15854 16.7256 1.42132V4.56192C16.7256 4.82894 16.9375 5.04086 17.2045 5.04086Z" fill="white"/>
<path d="M0.9375 26.6184C0.9375 27.3813 1.5563 28.0001 2.3192 28.0001H26.6812C27.4441 28.0001 28.0629 27.3813 28.0629 26.6184V7.96973H0.9375V26.6184ZM11.5842 25.7157C11.5842 25.9488 11.3935 26.1395 11.1604 26.1395H8.09182C7.85871 26.1395 7.66798 25.9488 7.66798 25.7157V23.2023C7.66798 22.9692 7.85871 22.7785 8.09182 22.7785H11.1604C11.3935 22.7785 11.5842 22.9692 11.5842 23.2023V25.7157ZM22.2903 10.2542C22.2903 10.0211 22.481 9.83036 22.7141 9.83036H25.7826C26.0158 9.83036 26.2065 10.0211 26.2065 10.2542V12.7675C26.2065 13.0006 26.0158 13.1914 25.7826 13.1914H22.7141C22.481 13.1914 22.2903 13.0006 22.2903 12.7675V10.2542ZM22.2903 14.5688C22.2903 14.3357 22.481 14.145 22.7141 14.145H25.7826C26.0158 14.145 26.2065 14.3357 26.2065 14.5688V17.0822C26.2065 17.3153 26.0158 17.506 25.7826 17.506H22.7141C22.481 17.506 22.2903 17.3153 22.2903 17.0822V14.5688ZM22.2903 18.8877C22.2903 18.6546 22.481 18.4639 22.7141 18.4639H25.7826C26.0158 18.4639 26.2065 18.6546 26.2065 18.8877V21.401C26.2065 21.6341 26.0158 21.8249 25.7826 21.8249H22.7141C22.481 21.8249 22.2903 21.6341 22.2903 21.401V18.8877ZM22.2903 23.2023C22.2903 22.9692 22.481 22.7785 22.7141 22.7785H25.7826C26.0158 22.7785 26.2065 22.9692 26.2065 23.2023V25.7157C26.2065 25.9488 26.0158 26.1395 25.7826 26.1395H22.7141C22.481 26.1395 22.2903 25.9488 22.2903 25.7157V23.2023ZM17.4162 10.2542C17.4162 10.0211 17.6069 9.83036 17.84 9.83036H20.9086C21.1417 9.83036 21.3324 10.0211 21.3324 10.2542V12.7675C21.3324 13.0006 21.1417 13.1914 20.9086 13.1914H17.84C17.6069 13.1914 17.4162 13.0006 17.4162 12.7675V10.2542ZM17.4162 14.5688C17.4162 14.3357 17.6069 14.145 17.84 14.145H20.9086C21.1417 14.145 21.3324 14.3357 21.3324 14.5688V17.0822C21.3324 17.3153 21.1417 17.506 20.9086 17.506H17.84C17.6069 17.506 17.4162 17.3153 17.4162 17.0822V14.5688ZM17.4162 18.8877C17.4162 18.6546 17.6069 18.4639 17.84 18.4639H20.9086C21.1417 18.4639 21.3324 18.6546 21.3324 18.8877V21.401C21.3324 21.6341 21.1417 21.8249 20.9086 21.8249H17.84C17.6069 21.8249 17.4162 21.6341 17.4162 21.401V18.8877ZM17.4162 23.2023C17.4162 22.9692 17.6069 22.7785 17.84 22.7785H20.9086C21.1417 22.7785 21.3324 22.9692 21.3324 23.2023V25.7157C21.3324 25.9488 21.1417 26.1395 20.9086 26.1395H17.84C17.6069 26.1395 17.4162 25.9488 17.4162 25.7157V23.2023ZM16.4583 23.2023V25.7157C16.4583 25.9488 16.2676 26.1395 16.0345 26.1395H12.9659C12.7328 26.1395 12.5421 25.9488 12.5421 25.7157V23.2023C12.5421 22.9692 12.7328 22.7785 12.9659 22.7785H16.0345C16.2676 22.7785 16.4583 22.9692 16.4583 23.2023ZM2.84051 14.2679C2.94223 13.9585 3.20501 13.7381 3.52713 13.6915L6.74826 13.2253L8.1893 10.3093C8.3334 10.0168 8.62585 9.8346 8.94796 9.8346C9.27431 9.8346 9.56676 10.0168 9.71086 10.3093L11.1519 13.2253L14.373 13.6915C14.6951 13.7381 14.9579 13.9585 15.0596 14.2679C15.1614 14.5773 15.0766 14.9121 14.8435 15.1368L12.5124 17.4085L13.0634 20.6169C13.1185 20.939 12.9871 21.2569 12.7243 21.4476C12.4615 21.6384 12.1182 21.6638 11.83 21.5112L8.9522 19.9981L6.06589 21.507C5.94298 21.5748 5.80311 21.6045 5.67172 21.6045C5.49795 21.6045 5.32418 21.5494 5.17584 21.4434C4.91306 21.2527 4.78167 20.9348 4.83677 20.6127L5.38776 17.4043L3.05667 15.1325C2.81932 14.9079 2.73879 14.5773 2.84051 14.2679ZM2.79813 23.2023C2.79813 22.9692 2.98886 22.7785 3.22196 22.7785H6.29052C6.52363 22.7785 6.71436 22.9692 6.71436 23.2023V25.7157C6.71436 25.9488 6.52363 26.1395 6.29052 26.1395H3.22196C2.98886 26.1395 2.79813 25.9488 2.79813 25.7157V23.2023Z" fill="white"/>
<path d="M22.6078 5.04086C22.8706 5.04086 23.0868 4.8247 23.0868 4.56192V1.42132C23.0868 1.15854 22.8706 0.942383 22.6078 0.942383C22.3451 0.942383 22.1289 1.15854 22.1289 1.42132V4.56192C22.1289 4.82894 22.3408 5.04086 22.6078 5.04086Z" fill="white"/>
<path d="M6.39187 5.04086C6.65465 5.04086 6.87081 4.8247 6.87081 4.56192V1.42132C6.87081 1.15854 6.65465 0.942383 6.39187 0.942383C6.1291 0.942383 5.91294 1.15854 5.91294 1.42132V4.56192C5.91718 4.82894 6.1291 5.04086 6.39187 5.04086Z" fill="white"/>
<path d="M28.0629 4.90953C28.0629 4.14663 27.4441 3.52783 26.6812 3.52783H23.9305V4.56199C23.9305 5.29098 23.3371 5.88859 22.6039 5.88859C21.8707 5.88859 21.2815 5.29522 21.2815 4.56199V3.52783H18.5266V4.56199C18.5266 5.29098 17.9332 5.88859 17.2 5.88859C16.4668 5.88859 15.8734 5.29522 15.8734 4.56199V3.52783H13.1185V4.56199C13.1185 5.29098 12.5251 5.88859 11.7919 5.88859C11.0587 5.88859 10.4653 5.29522 10.4653 4.56199V3.52783H7.71884V4.56199C7.71884 5.29098 7.12547 5.88859 6.39224 5.88859C5.65901 5.88859 5.06564 5.29522 5.06564 4.56199V3.52783H2.3192C1.5563 3.52783 0.9375 4.14663 0.9375 4.90953V7.12194H28.0629V4.90953Z" fill="white"/>
</svg>
