<svg width="33" height="36" viewBox="0 0 33 36" fill="none" xmlns="http://www.w3.org/2000/svg">
<path d="M20.5792 9.86093C20.768 10.0736 20.8578 10.3561 20.8243 10.6356L20.3813 14.36C20.3083 14.9478 19.911 15.3412 19.3949 15.3412C18.8743 15.3412 18.48 14.9463 18.41 14.36L17.9655 10.6356C17.932 10.3576 18.0203 10.0751 18.2106 9.86245C18.3963 9.65284 18.6566 9.53284 18.9261 9.53284H19.8653C20.1332 9.53284 20.3936 9.65284 20.5808 9.86245L20.5792 9.86093ZM31.7967 26.218L21.5367 32.1374C21.077 32.4017 20.5685 32.5368 20.054 32.5368C19.7998 32.5368 19.5425 32.5034 19.2899 32.4366L12.2569 30.5607C11.785 30.4574 11.6633 30.4529 11.3527 30.6321L10.686 31.0179L11.0772 31.6938C11.2507 31.9931 11.2949 32.3546 11.199 32.71C11.0833 33.1429 10.7743 33.5302 10.3511 33.7733L10.2415 33.837C9.1363 34.475 8.03263 35.1129 6.929 35.7479C6.63215 35.918 6.31097 36 6.00346 36C5.4859 36 5.00789 35.7676 4.75825 35.3362L0.171471 27.4225C-0.00206624 27.1233 -0.0462115 26.7618 0.0496899 26.4048C0.165384 25.9719 0.474385 25.5831 0.89608 25.3401C1.46083 25.0135 2.02559 24.6884 2.59038 24.3619C3.16581 24.0292 3.74121 23.6981 4.31816 23.3655H4.31968C5.11888 22.9052 6.09161 23.0921 6.48891 23.7801L6.88013 24.4545L11.7561 21.643C12.333 21.3089 13.117 21.2268 13.7578 21.4349L20.2565 23.1665L21.8792 21.5428C22.8185 20.604 24.3499 20.604 25.2906 21.5397C25.3074 21.5564 25.3211 21.5746 25.3378 21.5914C26.2801 20.6618 27.8024 20.6648 28.7386 21.599C28.9106 21.7706 29.0537 21.965 29.1648 22.1762L29.3825 22.0516C29.9382 21.7311 30.5882 21.6445 31.2123 21.8116C31.8364 21.9787 32.3555 22.3751 32.6767 22.931C33.3419 24.0778 32.9476 25.5527 31.7967 26.218ZM22.3282 26.0448C22.3191 26.0767 22.3099 26.1086 22.2993 26.139L28.2788 22.6896C28.2118 22.5544 28.1251 22.4298 28.017 22.322C27.4766 21.7813 26.5952 21.7828 26.0533 22.3235L22.3298 26.0448L22.3282 26.0448ZM21.3357 23.5341C21.7756 23.7877 22.1044 24.1857 22.281 24.6475L24.6162 22.3129C24.6009 22.2962 24.5857 22.278 24.569 22.2628C24.0271 21.7236 23.1457 21.7236 22.6052 22.2643L21.3372 23.5326L21.3357 23.5341ZM31.7905 23.4414C31.6064 23.1225 31.3065 22.8946 30.9472 22.799C30.5879 22.7033 30.2135 22.7519 29.8953 22.9357L29.1661 23.3564C29.1555 23.364 29.1433 23.37 29.1327 23.3761L22.3678 27.2782C21.5458 27.7505 21.1881 27.872 20.5579 27.7065L19.7496 27.4923C19.7435 27.4908 19.7374 27.4908 19.7313 27.4893L14.4018 26.0843C14.1293 26.0129 13.9664 25.7334 14.0379 25.46C14.1095 25.1881 14.3896 25.0256 14.6636 25.097L19.9503 26.4913C19.9579 26.4929 19.9655 26.4944 19.9746 26.4959C20.5911 26.66 21.2 26.3152 21.3614 25.7122C21.5258 25.0985 21.1574 24.4651 20.5424 24.2996L20.2791 24.2297C20.273 24.2282 20.2669 24.2267 20.2608 24.2251L13.4808 22.4176C13.4701 22.4146 13.461 22.4116 13.4519 22.4085C13.0865 22.287 12.5994 22.3356 12.2706 22.527L7.39468 25.3385L10.1759 30.1337L10.8426 29.7479C11.4804 29.3804 11.9082 29.4366 12.4912 29.5657C12.4988 29.5672 12.5049 29.5687 12.5125 29.5717L19.5544 31.4491C20.0537 31.5813 20.5759 31.5114 21.0264 31.2517L31.2865 25.3323C31.9487 24.9495 32.177 24.0989 31.7934 23.4397L31.7905 23.4414ZM10.7011 9.34588V7.99861C10.7011 7.4351 11.1061 6.99159 11.7576 6.84422L12.9388 6.57689C13.0469 6.24272 13.1839 5.91616 13.3438 5.60023L12.6983 4.57648C12.3421 4.00994 12.3695 3.41147 12.7714 3.01505L13.7243 2.06421C14.1216 1.66475 14.7214 1.63738 15.2877 1.99282L16.3137 2.63682C16.6303 2.47733 16.9576 2.34063 17.2925 2.23278L17.5604 1.05411C17.7096 0.402491 18.1526 0 18.7174 0H20.0676C20.6324 0 21.0769 0.404047 21.2246 1.05411L21.4925 2.23278C21.8274 2.34062 22.1547 2.4758 22.4713 2.63682L23.4973 1.99282C24.0636 1.63739 24.6634 1.66473 25.0637 2.06421L26.0166 3.01656C26.4185 3.4145 26.4459 4.01297 26.0867 4.578L25.4428 5.59871C25.6026 5.91161 25.7381 6.23968 25.8492 6.57689L27.0305 6.84422C27.682 6.99307 28.0854 7.43506 28.0854 7.99861V9.34588C28.0854 9.90939 27.682 10.3514 27.032 10.5003L25.8476 10.7676C25.7396 11.1018 25.6026 11.4283 25.4427 11.7443L26.0881 12.768C26.4459 13.33 26.4185 13.9285 26.0166 14.331L25.2083 15.1375L25.7609 16.1947C26.1658 16.9678 26.1369 17.9096 25.6863 18.6508C25.2829 19.316 24.5994 19.7125 23.858 19.7125H14.93C14.1887 19.7125 13.5052 19.3161 13.1018 18.6508C12.6512 17.9096 12.6237 16.9693 13.0272 16.1947L13.5813 15.1375L12.773 14.3325C12.3726 13.933 12.3452 13.3345 12.7014 12.7695L13.3468 11.7458C13.187 11.4298 13.05 11.1033 12.9419 10.7676L11.7606 10.5003C11.1076 10.3514 10.7042 9.90943 10.7042 9.34588H10.7011ZM19.3934 5.69289C17.7463 5.69289 16.4082 7.02954 16.4082 8.67151C16.4082 8.95706 16.4493 9.23653 16.5269 9.50538L17.4921 7.66292C17.8833 6.91409 18.5942 6.46754 19.3949 6.46754C20.1956 6.46754 20.9065 6.91409 21.2977 7.66444L22.2614 9.5069C22.339 9.23805 22.3801 8.95855 22.3801 8.67302C22.3801 7.02954 21.0405 5.69441 19.3949 5.69441L19.3934 5.69289ZM24.8539 16.6672L20.3891 8.1356C20.1775 7.73004 19.8045 7.48853 19.3935 7.48853C18.981 7.48853 18.6095 7.73004 18.3979 8.1356L13.9331 16.6672C13.6926 17.1259 13.7094 17.6834 13.9758 18.1208C14.195 18.4823 14.5436 18.6904 14.9302 18.6904H23.8583C24.2449 18.6904 24.592 18.4823 24.8127 18.1208C25.0791 17.6819 25.0943 17.1259 24.8553 16.6657L24.8539 16.6672ZM19.3934 15.4916C18.7053 15.4916 18.1467 16.049 18.1467 16.7356C18.1467 17.4221 18.7053 17.9796 19.3934 17.9796C20.0814 17.9796 20.6401 17.4221 20.6401 16.7356C20.6401 16.049 20.0814 15.4916 19.3934 15.4916Z" fill="white"/>
</svg>
