<svg width="32" height="32" viewBox="0 0 32 32" fill="none" xmlns="http://www.w3.org/2000/svg">
<path fill-rule="evenodd" clip-rule="evenodd" d="M30.0783 16.6873L23.869 13.8342C23.8261 13.8143 23.7794 13.8039 23.7321 13.8039C23.6848 13.8039 23.638 13.8143 23.5951 13.8342L17.3859 16.6873C17.3289 16.7128 17.2806 16.7544 17.2469 16.8069C17.2131 16.8595 17.1954 16.9207 17.1959 16.9831V19.9494C17.1959 23.7888 18.2259 26.6638 20.2494 28.4903C21.2207 29.3619 22.401 29.9673 23.6755 30.2475H23.7375H23.796C25.0634 29.9658 26.2363 29.3604 27.2001 28.4903C29.2272 26.6638 30.2536 23.7888 30.2536 19.9494V16.9831C30.2554 16.9223 30.2399 16.8622 30.2088 16.8098C30.1778 16.7574 30.1325 16.7149 30.0783 16.6873ZM27.39 20.7823L22.5322 24.3331C22.4576 24.3869 22.3728 24.4248 22.2829 24.4442C22.193 24.4637 22.1001 24.4645 22.0099 24.4464C21.9213 24.4289 21.8374 24.3929 21.7638 24.3406C21.6901 24.2883 21.6283 24.221 21.5826 24.1432L19.939 21.4801C19.8943 21.407 19.8646 21.3258 19.8514 21.2412C19.8383 21.1565 19.8419 21.0701 19.8623 20.9869C19.8819 20.9029 19.9182 20.8238 19.969 20.7541C20.0198 20.6844 20.0841 20.6257 20.1581 20.5814C20.3066 20.4923 20.4842 20.4653 20.6524 20.5063C20.8206 20.5473 20.9659 20.6531 21.0566 20.8006L22.1524 22.5724C22.1752 22.6112 22.2064 22.6445 22.2436 22.6697C22.2809 22.695 22.3233 22.7117 22.3679 22.7185C22.4113 22.7279 22.4564 22.7279 22.4998 22.7185C22.5433 22.709 22.5843 22.6903 22.6199 22.6637L26.6376 19.7412C26.7063 19.6823 26.7863 19.6382 26.8728 19.6116C26.9592 19.5851 27.0502 19.5767 27.1401 19.5869C27.2299 19.5971 27.3167 19.6257 27.395 19.671C27.4733 19.7163 27.5414 19.7773 27.595 19.8501C27.6487 19.9229 27.6867 20.006 27.7068 20.0942C27.7269 20.1824 27.7286 20.2738 27.7117 20.3627C27.6949 20.4515 27.6599 20.536 27.609 20.6107C27.558 20.6854 27.4922 20.7488 27.4156 20.797L27.39 20.7823ZM31.3457 15.3612L24.2343 12.0734C24.0852 12.0031 23.9224 11.9667 23.7576 11.9667C23.5928 11.9667 23.4301 12.0031 23.281 12.0734L22.4665 12.4387V4.31063C22.4655 3.88366 22.2955 3.47446 21.9936 3.17254C21.6918 2.87063 21.2826 2.70059 20.8557 2.69962H19.76V1.6037C19.7571 1.17863 19.5867 0.771843 19.2859 0.471608C18.985 0.171374 18.5779 0.00191368 18.1529 0H4.70807C4.6651 0.000413066 4.62264 0.00934289 4.58314 0.0262729C4.54364 0.0432029 4.50789 0.0677971 4.47796 0.098633L0.094969 4.48232C0.0647985 4.51256 0.0408824 4.54846 0.0245878 4.58794C0.00829319 4.62743 -6.06118e-05 4.66975 4.16034e-06 4.71247V24.377C-0.000476037 24.5881 0.0406175 24.7972 0.120938 24.9924C0.201259 25.1876 0.319234 25.365 0.468128 25.5146C0.617022 25.6642 0.793918 25.783 0.988716 25.8642C1.18352 25.9455 1.3924 25.9875 1.60345 25.988H2.6992V27.0839C2.70016 27.5099 2.86979 27.9182 3.17097 28.2194C3.47215 28.5206 3.88036 28.6903 4.30629 28.6913H18.0944C18.4083 29.0844 18.754 29.4509 19.1281 29.7872C20.3738 30.9254 21.9139 31.6912 23.5732 31.9973C23.6328 32.0008 23.6926 32.0008 23.7522 31.9973C23.8093 32.0009 23.8667 32.0009 23.9238 31.9973C25.5855 31.6917 27.1281 30.926 28.3762 29.7872C29.4761 28.7788 30.3382 27.5385 30.9001 26.156C31.6718 24.1786 32.0442 22.0679 31.9958 19.9458V16.3914C31.9987 16.1751 31.9388 15.9628 31.8234 15.7799C31.708 15.5971 31.5421 15.4516 31.3457 15.3612ZM1.61441 25.3341C1.36217 25.3312 1.12119 25.2292 0.943508 25.0501C0.765825 24.8711 0.6657 24.6293 0.664758 24.377V5.04124H3.42969C3.64262 5.04173 3.85354 5.00008 4.05031 4.91869C4.24708 4.83731 4.42581 4.7178 4.5762 4.56704C4.7266 4.41628 4.84569 4.23726 4.92662 4.04027C5.00754 3.84329 5.04871 3.63224 5.04775 3.41928V0.657554H18.1529C18.4061 0.65852 18.6485 0.759784 18.8272 0.939172C19.0059 1.11856 19.1062 1.36145 19.1062 1.61466V14.0022L16.1586 15.3612C15.9608 15.4507 15.7931 15.5957 15.6757 15.7785C15.5584 15.9613 15.4965 16.1741 15.4975 16.3914V19.9494C15.4714 21.7755 15.7403 23.5938 16.2938 25.3341H1.61441ZM31.3457 19.9494C31.3457 24.1066 30.1988 27.2556 27.9343 29.294C26.7831 30.348 25.3595 31.0579 23.8252 31.3434C23.7756 31.3507 23.7251 31.3507 23.6755 31.3434C22.1406 31.0585 20.716 30.3499 19.5628 29.2977C17.2982 27.2519 16.1513 24.1103 16.1513 19.9531V16.3914C16.1499 16.2987 16.1759 16.2077 16.2259 16.1298C16.2759 16.0518 16.3478 15.9903 16.4326 15.953L23.5476 12.6652C23.6113 12.634 23.6812 12.6177 23.7522 12.6177C23.8218 12.6185 23.8904 12.6347 23.953 12.6652L31.0681 15.953C31.1528 15.9901 31.2244 16.0516 31.2739 16.1297C31.3234 16.2078 31.3484 16.2989 31.3457 16.3914V19.9494ZM12.6157 19.0946C12.6965 19.1032 12.7712 19.1413 12.8255 19.2017C12.8798 19.262 12.9098 19.3404 12.9098 19.4216C12.9098 19.5028 12.8798 19.5811 12.8255 19.6415C12.7712 19.7019 12.6965 19.74 12.6157 19.7485H8.76233C8.68159 19.74 8.60687 19.7019 8.55256 19.6415C8.49826 19.5811 8.46821 19.5028 8.46821 19.4216C8.46821 19.3404 8.49826 19.262 8.55256 19.2017C8.60687 19.1413 8.68159 19.1032 8.76233 19.0946H12.6157ZM14.5187 17.4946C14.5645 17.4897 14.6108 17.4946 14.6547 17.5088C14.6985 17.523 14.7389 17.5463 14.7731 17.5771C14.8074 17.608 14.8348 17.6456 14.8535 17.6878C14.8723 17.7299 14.882 17.7754 14.882 17.8215C14.882 17.8676 14.8723 17.9132 14.8535 17.9553C14.8348 17.9974 14.8074 18.0351 14.7731 18.0659C14.7389 18.0968 14.6985 18.1201 14.6547 18.1343C14.6108 18.1485 14.5645 18.1533 14.5187 18.1485H8.76233C8.68159 18.1399 8.60687 18.1018 8.55256 18.0414C8.49826 17.9811 8.46821 17.9027 8.46821 17.8215C8.46821 17.7403 8.49826 17.662 8.55256 17.6016C8.60687 17.5413 8.68159 17.5031 8.76233 17.4946H14.5187ZM6.62197 11.6898C6.6925 11.6389 6.7802 11.6176 6.86625 11.6305C6.9523 11.6435 7.02983 11.6897 7.08219 11.7593C7.1078 11.7937 7.12633 11.8329 7.13671 11.8746C7.14708 11.9163 7.14911 11.9596 7.14265 12.002C7.1362 12.0445 7.1214 12.0853 7.09911 12.122C7.07682 12.1587 7.04748 12.1906 7.01279 12.2159L4.99661 13.7063C4.94027 13.747 4.8725 13.7687 4.80303 13.7684H4.7519C4.70824 13.7618 4.66648 13.7459 4.62935 13.722C4.59221 13.6981 4.56054 13.6666 4.5364 13.6296L3.85704 12.6506C3.83216 12.6148 3.81485 12.5742 3.80615 12.5314C3.79745 12.4887 3.79755 12.4446 3.80643 12.4019C3.81532 12.3592 3.8328 12.3187 3.85783 12.2829C3.88286 12.2472 3.9149 12.2169 3.952 12.194C3.98701 12.1695 4.0265 12.1521 4.06821 12.1429C4.10993 12.1337 4.15305 12.1328 4.19511 12.1403C4.23717 12.1477 4.27735 12.1634 4.31335 12.1864C4.34935 12.2094 4.38046 12.2393 4.40491 12.2743L4.89434 12.9794L6.63658 11.6898H6.62197ZM6.62197 6.06411C6.6925 6.01312 6.7802 5.99182 6.86625 6.0048C6.9523 6.01778 7.02983 6.06399 7.08219 6.13351C7.13296 6.20347 7.15415 6.29061 7.14116 6.37607C7.12817 6.46154 7.08205 6.53844 7.01279 6.59015L4.99661 8.07695C4.94136 8.1201 4.87313 8.14328 4.80303 8.14271H4.7519C4.70826 8.13738 4.66633 8.1225 4.62909 8.09914C4.59184 8.07578 4.5602 8.04451 4.5364 8.00754L3.85704 7.02852C3.81913 6.95789 3.80866 6.87574 3.82762 6.79785C3.84658 6.71997 3.89365 6.65183 3.95977 6.60654C4.0259 6.56124 4.10642 6.54197 4.18588 6.55243C4.26535 6.56289 4.33815 6.60234 4.3903 6.66321L4.87973 7.36826L6.62197 6.07872V6.06411ZM6.62197 17.3156C6.6925 17.2646 6.7802 17.2433 6.86625 17.2563C6.9523 17.2693 7.02983 17.3155 7.08219 17.385C7.1294 17.4535 7.14851 17.5376 7.1356 17.6198C7.12269 17.7021 7.07873 17.7762 7.01279 17.827L4.99661 19.3175C4.94027 19.3581 4.8725 19.3798 4.80303 19.3796H4.7519C4.70847 19.3735 4.66681 19.3584 4.62967 19.3351C4.59253 19.3118 4.56074 19.2809 4.5364 19.2444L3.85704 18.2617C3.82733 18.2271 3.80526 18.1865 3.79226 18.1428C3.77926 18.099 3.77562 18.053 3.78158 18.0077C3.78753 17.9625 3.80295 17.919 3.82683 17.8801C3.85071 17.8412 3.88252 17.8077 3.92018 17.7819C3.95783 17.7561 4.0005 17.7386 4.0454 17.7303C4.0903 17.7221 4.13643 17.7235 4.18078 17.7343C4.22513 17.7451 4.2667 17.7651 4.3028 17.793C4.3389 17.821 4.36872 17.8562 4.3903 17.8964L4.87973 18.5978L6.62197 17.3083V17.3156ZM3.8753 9.05963C3.637 9.05963 3.40846 8.96495 3.23995 8.79642C3.07145 8.62789 2.97678 8.39931 2.97678 8.16097V6.57554C2.97678 6.3372 3.07145 6.10862 3.23995 5.94009C3.40846 5.77156 3.637 5.67688 3.8753 5.67688H5.51892C5.56297 5.68053 5.60585 5.69294 5.64504 5.71337C5.68424 5.7338 5.71897 5.76184 5.7472 5.79586C5.77543 5.82988 5.79659 5.86918 5.80945 5.91148C5.82231 5.95378 5.8266 5.99821 5.82208 6.04219C5.81929 6.08492 5.8081 6.12668 5.78913 6.16507C5.77017 6.20346 5.74381 6.23772 5.71157 6.2659C5.67933 6.29407 5.64184 6.31559 5.60126 6.32924C5.56068 6.34288 5.5178 6.34837 5.47509 6.34539H3.8753C3.80943 6.34539 3.74625 6.37156 3.69967 6.41815C3.6531 6.46474 3.62693 6.52792 3.62693 6.5938V8.17924C3.62693 8.21169 3.63337 8.24382 3.6459 8.27375C3.65843 8.30369 3.67678 8.33083 3.69989 8.35361C3.723 8.37639 3.75041 8.39434 3.78053 8.40642C3.81064 8.4185 3.84286 8.42448 3.8753 8.42399H5.45683C5.51869 8.42417 5.57832 8.4009 5.62372 8.35888C5.66912 8.31686 5.69693 8.2592 5.70154 8.1975C5.70563 8.1539 5.71838 8.11156 5.73906 8.07295C5.75973 8.03435 5.7879 8.00026 5.82193 7.9727C5.85595 7.94514 5.89514 7.92465 5.93719 7.91244C5.97924 7.90023 6.0233 7.89655 6.06679 7.9016C6.11077 7.90468 6.15364 7.91678 6.19275 7.93714C6.23185 7.9575 6.26635 7.98569 6.2941 8.01995C6.32185 8.05421 6.34225 8.09382 6.35404 8.1363C6.36584 8.17879 6.36876 8.22325 6.36265 8.26691C6.33569 8.48739 6.22837 8.69017 6.06123 8.83643C5.8941 8.9827 5.6789 9.06217 5.45683 9.05963H3.8753ZM6.06679 19.1385C6.11077 19.1415 6.15364 19.1536 6.19275 19.174C6.23185 19.1944 6.26635 19.2225 6.2941 19.2568C6.32185 19.2911 6.34225 19.3307 6.35404 19.3732C6.36584 19.4156 6.36876 19.4601 6.36265 19.5038C6.34263 19.7276 6.23981 19.936 6.07429 20.088C5.90878 20.24 5.6925 20.3248 5.46778 20.3257H3.8753C3.637 20.3257 3.40846 20.231 3.23995 20.0625C3.07145 19.894 2.97678 19.6654 2.97678 19.4271V17.827C2.97678 17.5883 3.07133 17.3594 3.23973 17.1903C3.40813 17.0212 3.63666 16.9257 3.8753 16.9247H5.51892C5.60513 16.9305 5.68551 16.9703 5.74236 17.0354C5.79921 17.1005 5.82789 17.1855 5.82208 17.2717C5.81626 17.358 5.77644 17.4384 5.71137 17.4952C5.6463 17.5521 5.5613 17.5808 5.47509 17.5749H3.8753C3.84255 17.5745 3.81003 17.5805 3.77967 17.5929C3.74932 17.6052 3.72174 17.6234 3.69858 17.6466C3.67541 17.6698 3.65714 17.6974 3.64483 17.7277C3.63252 17.7581 3.62644 17.7906 3.62693 17.8234V19.4051C3.62693 19.4376 3.63337 19.4697 3.6459 19.4997C3.65843 19.5296 3.67678 19.5567 3.69989 19.5795C3.723 19.6023 3.75041 19.6202 3.78053 19.6323C3.81064 19.6444 3.84286 19.6504 3.8753 19.6499H5.45683C5.51811 19.6501 5.57725 19.6274 5.62256 19.5861C5.66787 19.5449 5.69606 19.4881 5.70154 19.4271C5.70514 19.3833 5.71757 19.3407 5.73809 19.3018C5.7586 19.263 5.78678 19.2287 5.82092 19.201C5.85506 19.1734 5.89444 19.1529 5.9367 19.1409C5.97896 19.1289 6.02322 19.1256 6.06679 19.1312V19.1385ZM3.8753 14.6854C3.637 14.6854 3.40846 14.5907 3.23995 14.4222C3.07145 14.2536 2.97678 14.025 2.97678 13.7867V12.2013C2.97678 11.9629 3.07145 11.7344 3.23995 11.5658C3.40846 11.3973 3.637 11.3026 3.8753 11.3026H5.51892C5.60513 11.3084 5.68551 11.3483 5.74236 11.4133C5.79921 11.4784 5.82789 11.5634 5.82208 11.6497C5.81626 11.7359 5.77644 11.8163 5.71137 11.8731C5.6463 11.93 5.5613 11.9587 5.47509 11.9529H3.8753C3.84286 11.9524 3.81064 11.9584 3.78053 11.9704C3.75041 11.9825 3.723 12.0005 3.69989 12.0232C3.67678 12.046 3.65843 12.0732 3.6459 12.1031C3.63337 12.133 3.62693 12.1652 3.62693 12.1976V13.7831C3.62693 13.8155 3.63337 13.8476 3.6459 13.8776C3.65843 13.9075 3.67678 13.9347 3.69989 13.9574C3.723 13.9802 3.75041 13.9982 3.78053 14.0102C3.81064 14.0223 3.84286 14.0283 3.8753 14.0278H5.45683C5.51811 14.0281 5.57725 14.0053 5.62256 13.964C5.66787 13.9228 5.69606 13.866 5.70154 13.805C5.70881 13.7187 5.75003 13.6389 5.81613 13.5831C5.88223 13.5273 5.96779 13.5 6.05401 13.5072C6.14022 13.5145 6.22002 13.5557 6.27585 13.6218C6.33167 13.688 6.35895 13.7735 6.35169 13.8598C6.33167 14.0836 6.22885 14.292 6.06334 14.444C5.89782 14.596 5.68154 14.6808 5.45683 14.6817L3.8753 14.6854ZM8.76233 12.5227C8.68159 12.5142 8.60687 12.4761 8.55256 12.4157C8.49826 12.3553 8.46821 12.277 8.46821 12.1958C8.46821 12.1146 8.49826 12.0363 8.55256 11.9759C8.60687 11.9155 8.68159 11.8774 8.76233 11.8688H16.4691C16.5498 11.8774 16.6246 11.9155 16.6789 11.9759C16.7332 12.0363 16.7632 12.1146 16.7632 12.1958C16.7632 12.277 16.7332 12.3553 16.6789 12.4157C16.6246 12.4761 16.5498 12.5142 16.4691 12.5227H8.76233ZM8.76233 14.1191C8.68159 14.1106 8.60687 14.0725 8.55256 14.0121C8.49826 13.9517 8.46821 13.8734 8.46821 13.7922C8.46821 13.711 8.49826 13.6327 8.55256 13.5723C8.60687 13.5119 8.68159 13.4738 8.76233 13.4652H12.6157C12.6965 13.4738 12.7712 13.5119 12.8255 13.5723C12.8798 13.6327 12.9098 13.711 12.9098 13.7922C12.9098 13.8734 12.8798 13.9517 12.8255 14.0121C12.7712 14.0725 12.6965 14.1106 12.6157 14.1191H8.76233ZM8.76233 6.89335C8.67612 6.89335 8.59343 6.8591 8.53247 6.79813C8.47151 6.73716 8.43726 6.65446 8.43726 6.56823C8.43726 6.482 8.47151 6.39931 8.53247 6.33833C8.59343 6.27736 8.67612 6.24311 8.76233 6.24311H16.4691C16.5553 6.24311 16.638 6.27736 16.699 6.33833C16.7599 6.39931 16.7942 6.482 16.7942 6.56823C16.7942 6.65446 16.7599 6.73716 16.699 6.79813C16.638 6.8591 16.5553 6.89335 16.4691 6.89335H8.76233ZM8.43726 8.16462C8.43821 8.07869 8.47276 7.99655 8.53352 7.93578C8.59428 7.87501 8.67641 7.84045 8.76233 7.8395H12.6157C12.6965 7.84805 12.7712 7.88618 12.8255 7.94655C12.8798 8.00691 12.9098 8.08525 12.9098 8.16645C12.9098 8.24766 12.8798 8.32599 12.8255 8.38636C12.7712 8.44672 12.6965 8.48485 12.6157 8.4934H8.76233C8.67578 8.49244 8.59311 8.45738 8.53225 8.39582C8.47139 8.33427 8.43726 8.25119 8.43726 8.16462Z" fill="white"/>
</svg>
