<svg version="1.2" xmlns="http://www.w3.org/2000/svg" viewBox="0 0 25 25" width="25" height="25">
	<title>search-icon-svg</title>
	<style>
		.s0 { fill: #498440 } 
	</style>
	<path id="Layer" fill-rule="evenodd" class="s0" d="m19.7 18l5.3 5.3-1.7 1.7-5.3-5.3c-2 1.6-4.4 2.5-6.9 2.5-6.1 0-11.1-5-11.1-11.1 0-6.1 5-11.1 11.1-11.1 6.1 0 11.1 5 11.1 11.1 0 2.5-0.9 4.9-2.5 6.9zm-2.4-0.9c1.5-1.6 2.4-3.8 2.4-6 0-4.8-3.9-8.6-8.6-8.6-4.8 0-8.6 3.8-8.6 8.6 0 4.7 3.8 8.6 8.6 8.6 2.2 0 4.4-0.9 6-2.4z"/>
</svg>