<svg width="25" height="25" viewBox="0 0 25 25" fill="none" xmlns="http://www.w3.org/2000/svg">
<path d="M19.729 17.9888L25 23.2586L23.2586 25L17.9888 19.729C16.028 21.3009 13.5892 22.1558 11.0761 22.1522C4.9621 22.1522 0 17.1901 0 11.0761C0 4.9621 4.9621 0 11.0761 0C17.1901 0 22.1522 4.9621 22.1522 11.0761C22.1558 13.5892 21.3009 16.028 19.729 17.9888ZM17.2603 17.0757C18.8218 15.4693 19.694 13.3164 19.6909 11.0761C19.6909 6.31707 15.8351 2.46136 11.0761 2.46136C6.31707 2.46136 2.46136 6.31707 2.46136 11.0761C2.46136 15.8351 6.31707 19.6909 11.0761 19.6909C13.3164 19.694 15.4693 18.8218 17.0757 17.2603L17.2603 17.0757Z" fill="white"/>
</svg>
