<svg width="30" height="32" viewBox="0 0 30 32" fill="none" xmlns="http://www.w3.org/2000/svg">
<path d="M28.2107 13.4765H27.5122V11.7732C27.5115 11.3081 27.3228 10.8621 26.9874 10.5332C26.6521 10.2043 26.1975 10.0191 25.7233 10.0184H25.0568L25.0638 2.32189C25.0636 1.7065 24.8144 1.11634 24.371 0.680997C23.9276 0.245657 23.3262 0.000729325 22.6988 0H2.36463C1.73775 0.000637442 1.13673 0.245168 0.693425 0.679944C0.250122 1.11472 0.00074285 1.70423 0 2.31914V27.2943C0.00305552 28.5305 0.504997 29.7153 1.39608 30.5896C2.28716 31.4638 3.49489 31.9565 4.75521 31.9597L26.3799 32H26.3869C27.3452 31.9965 28.2631 31.6212 28.9401 30.956C29.6171 30.2907 29.9982 29.3897 30 28.4497V15.232C29.9994 14.7666 29.8108 14.3205 29.4753 13.9914C29.1399 13.6623 28.6851 13.4771 28.2107 13.4765ZM23.7589 30.7403L4.75767 30.7059C3.83607 30.7037 2.95284 30.3437 2.30104 29.7046C1.64924 29.0655 1.2819 28.1993 1.2793 27.2953V2.31914C1.27995 2.03702 1.39452 1.76664 1.59793 1.56718C1.80133 1.36772 2.07701 1.25543 2.36463 1.25488H22.6988C22.9868 1.25543 23.2629 1.36805 23.4664 1.56803C23.6698 1.76801 23.7841 2.03901 23.7841 2.32155L23.7589 30.7403ZM3.69795 6.29127C3.69795 6.12505 3.76517 5.96563 3.88486 5.84797C4.00455 5.7303 4.16693 5.66402 4.33638 5.66366H16.27C16.3553 5.6617 16.4401 5.67648 16.5194 5.70713C16.5988 5.73778 16.6711 5.78368 16.7321 5.84214C16.7931 5.9006 16.8416 5.97043 16.8747 6.04753C16.9078 6.12463 16.9248 6.20744 16.9248 6.2911C16.9248 6.37475 16.9078 6.45756 16.8747 6.53466C16.8416 6.61176 16.7931 6.68159 16.7321 6.74005C16.6711 6.79851 16.5988 6.84441 16.5194 6.87506C16.4401 6.90572 16.3553 6.9205 16.27 6.91854H4.33638C4.16699 6.91817 4.00466 6.85194 3.88498 6.73435C3.7653 6.61676 3.69804 6.45742 3.69795 6.29127ZM21.3644 6.29127C21.3644 6.45763 21.2971 6.61718 21.1771 6.73481C21.0572 6.85245 20.8946 6.91854 20.725 6.91854H18.7999C18.6328 6.9147 18.4739 6.84691 18.3571 6.72966C18.2404 6.61241 18.175 6.45501 18.175 6.2911C18.175 6.12719 18.2404 5.96978 18.3571 5.85253C18.4739 5.73528 18.6328 5.66749 18.7999 5.66366H20.725C20.809 5.66366 20.8921 5.67989 20.9697 5.71144C21.0474 5.74298 21.1179 5.78922 21.1773 5.8475C21.2366 5.90578 21.2837 5.97497 21.3158 6.05112C21.348 6.12726 21.3645 6.20887 21.3644 6.29127ZM3.76285 16.364C3.59315 16.364 3.43041 16.2979 3.31042 16.1802C3.19043 16.0625 3.12302 15.9029 3.12302 15.7364V9.14615C3.12302 8.9797 3.19043 8.82006 3.31042 8.70236C3.43041 8.58466 3.59315 8.51854 3.76285 8.51854H10.4814C10.6511 8.51854 10.8138 8.58466 10.9338 8.70236C11.0538 8.82006 11.1212 8.9797 11.1212 9.14615V15.7364C11.1212 15.9029 11.0538 16.0625 10.9338 16.1802C10.8138 16.2979 10.6511 16.364 10.4814 16.364H3.76285ZM21.3644 14.1316C21.3644 14.298 21.2971 14.4575 21.1771 14.5752C21.0572 14.6928 20.8946 14.7589 20.725 14.7589H12.4938C12.4086 14.7608 12.3238 14.7461 12.2444 14.7154C12.1651 14.6848 12.0928 14.6389 12.0318 14.5804C11.9707 14.5219 11.9223 14.4521 11.8892 14.375C11.8561 14.2979 11.839 14.2151 11.839 14.1314C11.839 14.0478 11.8561 13.965 11.8892 13.8879C11.9223 13.8108 11.9707 13.7409 12.0318 13.6825C12.0928 13.624 12.1651 13.5781 12.2444 13.5475C12.3238 13.5168 12.4086 13.502 12.4938 13.504H20.725C20.8946 13.5041 21.0572 13.5703 21.1772 13.6879C21.2971 13.8056 21.3644 13.9652 21.3644 14.1316ZM21.3644 10.2114C21.3644 10.3778 21.2971 10.5374 21.1771 10.655C21.0572 10.7726 20.8946 10.8387 20.725 10.8387H12.4938C12.4086 10.8407 12.3238 10.8259 12.2444 10.7952C12.1651 10.7646 12.0928 10.7187 12.0318 10.6602C11.9707 10.6018 11.9223 10.5319 11.8892 10.4548C11.8561 10.3777 11.839 10.2949 11.839 10.2113C11.839 10.1276 11.8561 10.0448 11.8892 9.9677C11.9223 9.8906 11.9707 9.82077 12.0318 9.76231C12.0928 9.70386 12.1651 9.65795 12.2444 9.6273C12.3238 9.59665 12.4086 9.58187 12.4938 9.58383H20.725C20.8946 9.58392 21.0572 9.65008 21.1772 9.76777C21.2971 9.88546 21.3644 10.045 21.3644 10.2114ZM8.0438 18.0518C8.0438 18.2181 7.97643 18.3777 7.8565 18.4953C7.73658 18.613 7.57392 18.6791 7.40432 18.6791H4.33638C4.25112 18.681 4.16632 18.6662 4.08696 18.6356C4.00761 18.6049 3.9353 18.559 3.8743 18.5006C3.81329 18.4421 3.76481 18.3723 3.73172 18.2952C3.69862 18.2181 3.68157 18.1353 3.68157 18.0516C3.68157 17.968 3.69862 17.8851 3.73172 17.808C3.76481 17.7309 3.81329 17.6611 3.8743 17.6027C3.9353 17.5442 4.00761 17.4983 4.08696 17.4676C4.16632 17.437 4.25112 17.4222 4.33638 17.4242H7.40292C7.48703 17.424 7.57035 17.4402 7.6481 17.4716C7.72584 17.5031 7.7965 17.5493 7.85603 17.6076C7.91555 17.6659 7.96278 17.7352 7.995 17.8114C8.02722 17.8876 8.0438 17.9693 8.0438 18.0518ZM21.3644 18.0518C21.3644 18.2181 21.2971 18.3777 21.1771 18.4953C21.0572 18.613 20.8946 18.6791 20.725 18.6791H9.93417C9.84891 18.681 9.76411 18.6662 9.68476 18.6356C9.6054 18.6049 9.5331 18.559 9.47209 18.5006C9.41108 18.4421 9.36261 18.3723 9.32951 18.2952C9.29641 18.2181 9.27936 18.1353 9.27936 18.0516C9.27936 17.968 9.29641 17.8851 9.32951 17.808C9.36261 17.7309 9.41108 17.6611 9.47209 17.6027C9.5331 17.5442 9.6054 17.4983 9.68476 17.4676C9.76411 17.437 9.84891 17.4222 9.93417 17.4242H20.725C20.8946 17.4243 21.0572 17.4904 21.1772 17.6081C21.2971 17.7258 21.3644 17.8854 21.3644 18.0518ZM4.33638 21.3443H16.5243C16.694 21.3443 16.8568 21.4105 16.9768 21.5282C17.0967 21.6459 17.1642 21.8055 17.1642 21.972C17.1642 22.1384 17.0967 22.298 16.9768 22.4157C16.8568 22.5334 16.694 22.5996 16.5243 22.5996H4.33638C4.16668 22.5996 4.00394 22.5334 3.88395 22.4157C3.76396 22.298 3.69655 22.1384 3.69655 21.972C3.69655 21.8055 3.76396 21.6459 3.88395 21.5282C4.00394 21.4105 4.16668 21.3443 4.33638 21.3443ZM21.363 21.972C21.363 22.1381 21.2959 22.2975 21.1762 22.4151C21.0566 22.5328 20.8943 22.5991 20.725 22.5996H19.0542C18.8845 22.5996 18.7217 22.5334 18.6017 22.4157C18.4818 22.298 18.4143 22.1384 18.4143 21.972C18.4143 21.8055 18.4818 21.6459 18.6017 21.5282C18.7217 21.4105 18.8845 21.3443 19.0542 21.3443H20.725C20.8946 21.3444 21.0572 21.4106 21.1772 21.5283C21.2971 21.646 21.3644 21.8056 21.3644 21.972H21.363ZM8.97022 25.8921C8.97022 25.9745 8.95367 26.0562 8.92151 26.1323C8.88936 26.2085 8.84223 26.2776 8.78282 26.3359C8.7234 26.3942 8.65287 26.4404 8.57524 26.472C8.49761 26.5035 8.41441 26.5197 8.33039 26.5197H4.33638C4.25112 26.5217 4.16632 26.5069 4.08696 26.4763C4.00761 26.4456 3.9353 26.3997 3.8743 26.3413C3.81329 26.2828 3.76481 26.213 3.73172 26.1359C3.69862 26.0588 3.68157 25.976 3.68157 25.8923C3.68157 25.8086 3.69862 25.7258 3.73172 25.6487C3.76481 25.5716 3.81329 25.5018 3.8743 25.4433C3.9353 25.3849 4.00761 25.339 4.08696 25.3083C4.16632 25.2777 4.25112 25.2629 4.33638 25.2649H8.33039C8.50002 25.2649 8.66271 25.3309 8.78269 25.4486C8.90267 25.5662 8.97012 25.7257 8.97022 25.8921ZM21.3644 25.8921C21.3644 26.0585 21.2971 26.2181 21.1772 26.3358C21.0572 26.4535 20.8946 26.5196 20.725 26.5197H10.8609C10.6939 26.5159 10.535 26.4481 10.4182 26.3309C10.3015 26.2136 10.2361 26.0562 10.2361 25.8923C10.2361 25.7284 10.3015 25.571 10.4182 25.4537C10.535 25.3365 10.6939 25.2687 10.8609 25.2649H20.725C20.8946 25.2649 21.0572 25.3309 21.1771 25.4486C21.2971 25.5662 21.3644 25.7258 21.3644 25.8921Z" fill="white"/>
</svg>
