<svg width="36" height="32" viewBox="0 0 36 32" fill="none" xmlns="http://www.w3.org/2000/svg">
<path fill-rule="evenodd" clip-rule="evenodd" d="M34.6933 32H1.30396C0.89297 32 0.538967 31.8873 0.283996 31.6756C0.0290013 31.464 -0.0564985 31.2127 0.0365007 30.9493L3.12645 22.2723C3.24045 21.9525 3.65894 21.7576 4.11193 21.7576H32.4944C32.9459 21.7576 33.3869 21.9494 33.4799 22.2723L35.9758 30.9859C36.0493 31.2448 35.9548 31.4869 35.6983 31.6894C35.4403 31.8935 35.0953 32 34.6933 32ZM12.2597 11.3297V10.7023C12.2597 8.9556 12.9301 7.36733 14.0116 6.2129C15.0976 5.05403 16.5961 4.33529 18.2459 4.33529C19.9364 4.33529 21.4708 5.03731 22.5793 6.19614C23.6682 7.33673 24.3433 8.91588 24.3433 10.7023V11.3297C24.1363 11.2261 23.9053 11.1576 23.6473 11.1332L23.5438 11.1241V10.7038C23.5438 9.13686 22.9573 7.75415 22.0078 6.76295C21.0478 5.75791 19.7143 5.15031 18.2459 5.15031C16.8224 5.15031 15.5279 5.77315 14.5889 6.77363C13.6455 7.78171 13.059 9.17202 13.059 10.704V11.1242L12.9555 11.1334C12.6975 11.1593 12.4652 11.2276 12.2597 11.3297ZM15.3451 11.0419C14.9041 11.0419 14.5441 11.4073 14.5441 11.855V15.4915C14.5441 15.9392 14.9041 16.3046 15.3451 16.3046C15.7861 16.3046 16.1461 15.9392 16.1461 15.4915V11.8535C16.1461 11.4073 15.7861 11.0419 15.3451 11.0419ZM21.2578 11.0419C20.8169 11.0419 20.4569 11.4073 20.4569 11.855V15.4915C20.4569 15.9392 20.8169 16.3046 21.2578 16.3046C21.6988 16.3046 22.0588 15.9392 22.0588 15.4915V11.8535C22.0588 11.4073 21.6988 11.0419 21.2578 11.0419ZM22.8583 11.8748V15.4702L23.5723 15.4032C25.1833 15.2509 25.1863 12.0956 23.5723 11.9434L22.8583 11.8748ZM13.7446 11.8748V15.4702L13.0306 15.4032C11.4197 15.2509 11.4167 12.0956 13.0306 11.9434L13.7446 11.8748ZM5.33289 0C4.72541 0 4.17342 0.254306 3.77441 0.665452C3.37391 1.07509 3.12643 1.64156 3.12643 2.26441V19.1584C3.12643 19.5665 3.28843 19.9365 3.55093 20.2061C3.81342 20.4741 4.17342 20.6416 4.57243 20.6416H32.0325C32.43 20.6416 32.7915 20.4741 33.054 20.2061C33.3165 19.9381 33.4785 19.5665 33.4785 19.1584L33.477 2.26441C33.477 1.64156 33.2295 1.07509 32.829 0.665452C32.4285 0.255811 31.8765 0 31.2706 0H5.33289ZM31.2705 0.811641H5.33289C4.9444 0.811641 4.5904 0.974581 4.33389 1.23804C4.0774 1.50149 3.91841 1.86393 3.91841 2.26289V19.1569C3.91841 19.3411 3.99191 19.5086 4.11041 19.6304C4.2289 19.7523 4.3924 19.8284 4.57239 19.8284H32.0325C32.2125 19.8284 32.376 19.7523 32.4945 19.6304C32.613 19.5086 32.6865 19.3411 32.6865 19.1569V2.26445C32.6865 1.86549 32.5275 1.50306 32.271 1.2396C32.013 0.97616 31.6589 0.811641 31.2705 0.811641ZM15.6078 28.8557L15.1818 30.1242C15.1668 30.1684 15.1818 30.211 15.2253 30.2461C15.2688 30.2811 15.3288 30.2994 15.3978 30.2994L20.4315 30.2872C20.5005 30.2872 20.559 30.2674 20.6025 30.2323C20.646 30.1973 20.661 30.1547 20.646 30.1105L20.22 28.842C20.1975 28.775 20.109 28.7278 20.004 28.7293L15.822 28.7415C15.717 28.7431 15.6303 28.7887 15.6078 28.8557ZM29.5037 27.0299C29.5802 27.0299 29.6462 26.9979 29.6927 26.9355C29.7392 26.8746 29.7557 26.8015 29.7362 26.7253L28.9922 23.7239C28.9727 23.5549 28.6862 23.4589 28.4267 23.4589L7.82011 23.4605C7.56062 23.4605 7.30863 23.5579 7.25461 23.7239L6.28863 26.6934C6.26314 26.7695 6.27514 26.8472 6.32163 26.9127C6.36813 26.9781 6.43713 27.0132 6.51663 27.0132L29.5037 27.0299Z" fill="white"/>
</svg>
